<svg width="29" height="33" viewBox="0 0 29 33" fill="none" xmlns="http://www.w3.org/2000/svg">
<path d="M14.457 0.785721V32.2143" stroke="#64D2FF" stroke-width="2" stroke-miterlimit="10" stroke-linecap="round"/>
<path d="M11.0786 30.3286L14.4572 27.0286L17.7572 30.3286" stroke="#64D2FF" stroke-width="2" stroke-miterlimit="10" stroke-linecap="round"/>
<path d="M11.0786 26.2429L14.4572 22.9429L17.7572 26.2429" stroke="#64D2FF" stroke-width="2" stroke-miterlimit="10" stroke-linecap="round"/>
<path d="M17.7572 2.67143L14.4572 5.97143L11.0786 2.67143" stroke="#64D2FF" stroke-width="2" stroke-miterlimit="10" stroke-linecap="round"/>
<path d="M17.7572 6.75714L14.4572 10.0571L11.0786 6.75714" stroke="#64D2FF" stroke-width="2" stroke-miterlimit="10" stroke-linecap="round"/>
<path d="M0.864258 8.64287L28.05 24.3572" stroke="#64D2FF" stroke-width="2" stroke-miterlimit="10" stroke-linecap="round"/>
<path d="M24.7498 26.3214L23.4927 21.7643L28.1284 20.5071" stroke="#64D2FF" stroke-width="2" stroke-miterlimit="10" stroke-linecap="round"/>
<path d="M21.2142 24.2786L20.0356 19.7214L24.5928 18.4643" stroke="#64D2FF" stroke-width="2" stroke-miterlimit="10" stroke-linecap="round"/>
<path d="M4.16422 6.67857L5.34279 11.2357L0.785645 12.4929" stroke="#64D2FF" stroke-width="2" stroke-miterlimit="10" stroke-linecap="round"/>
<path d="M7.62129 8.72144L8.87843 13.2786L4.32129 14.5357" stroke="#64D2FF" stroke-width="2" stroke-miterlimit="10" stroke-linecap="round"/>
<path d="M0.864258 24.3572L28.05 8.64287" stroke="#64D2FF" stroke-width="2" stroke-miterlimit="10" stroke-linecap="round"/>
<path d="M28.1284 12.4929L23.4927 11.2357L24.7498 6.67857" stroke="#64D2FF" stroke-width="2" stroke-miterlimit="10" stroke-linecap="round"/>
<path d="M24.5928 14.5357L20.0356 13.2786L21.2142 8.72144" stroke="#64D2FF" stroke-width="2" stroke-miterlimit="10" stroke-linecap="round"/>
<path d="M0.785645 20.5071L5.34279 21.7643L4.16422 26.3214" stroke="#64D2FF" stroke-width="2" stroke-miterlimit="10" stroke-linecap="round"/>
<path d="M4.32129 18.4643L8.87843 19.7214L7.62129 24.2786" stroke="#64D2FF" stroke-width="2" stroke-miterlimit="10" stroke-linecap="round"/>
</svg>
