<svg fill="none" height="60" viewBox="0 0 90 60" width="90" xmlns="http://www.w3.org/2000/svg"><g stroke="#ff453a" stroke-miterlimit="10" stroke-width="2"><path d="m59.1999 50.8c11.4875 0 20.8-9.3125 20.8-20.8s-9.3125-20.79999-20.8-20.79999-20.8 9.31249-20.8 20.79999 9.3125 20.8 20.8 20.8z"/><path d="m58.8999 41.5c4.1421 0 7.5-3.3579 7.5-7.5s-3.3579-7.5-7.5-7.5-7.5 3.3579-7.5 7.5 3.3579 7.5 7.5 7.5z"/><path d="m6.4 37.6h23.8v-15.2h-23.8c-3 0-5.4 2.4-5.4 5.4v4.4c0 3 2.4 5.4 5.4 5.4z"/><path d="m81.4 59h-44.3c-3.8 0-6.8-3.1-6.8-6.8v-44.4c0-3.8 3.1-6.8 6.8-6.8h44.3c3.8 0 6.8 3.1 6.8 6.8v44.3c0 3.8-3 6.9-6.8 6.9z"/><path d="m64.2 39.3-7-7"/></g></svg>