<svg width="27" height="38" viewBox="0 0 27 38" fill="none" xmlns="http://www.w3.org/2000/svg">
<path d="M12.375 5.225C13.3125 6.84 14.1563 8.93 14.1563 11.59C14.1563 12.73 13.875 13.3 13.5 14.06C12.9375 15.295 12.1875 16.815 12.1875 20.235C12.1875 24.035 15.2812 27.17 19.0312 27.17C20.625 27.17 22.125 26.6 23.25 25.65C22.9687 31.445 18.2812 36.1 12.5625 36.1C6.65625 36.1 1.875 31.255 1.875 25.27C1.875 19.76 6 15.01 9.5625 10.925C11.25 9.025 12.0937 7.03 12.375 5.225ZM10.125 0.190002C10.125 0.190002 12.1875 5.225 8.25 9.69C4.21875 14.155 0 19.095 0 25.27C0 32.3 5.625 38 12.5625 38C19.5 38 25.125 32.3 25.125 25.27C25.125 23.37 24.6563 21.565 24 19.95C24 20.045 24 20.14 24 20.235C24 22.99 21.75 25.27 19.0312 25.27C16.3125 25.27 14.0625 22.99 14.0625 20.235C14.0625 14.82 16.0313 15.2 16.0313 11.59C16.0313 3.895 10.125 0.190002 10.125 0.190002Z" fill="#FF9F0A"/>
<path d="M19.7812 0.285C19.7812 0.19 19.7813 0.095 19.875 0.095C19.9688 0 20.0625 0 20.1562 0H26.7188C26.8125 0 26.9063 0 26.9063 0.095C27 0.19 27 0.19 27 0.285V1.615C27 1.71 27 1.805 26.9063 1.805C26.8125 1.9 26.8125 1.9 26.7188 1.9H21.9375V4.56H25.875C25.9688 4.56 26.0625 4.56 26.0625 4.655C26.1563 4.75 26.1563 4.75 26.1563 4.845V6.175C26.1563 6.27 26.1563 6.365 26.0625 6.365C25.9688 6.46 25.9688 6.46 25.875 6.46H21.9375V9.31H26.7188C26.8125 9.31 26.9063 9.31 26.9063 9.405C27 9.5 27 9.5 27 9.595V10.925C27 11.02 27 11.115 26.9063 11.115C26.8125 11.21 26.8125 11.21 26.7188 11.21H20.1562C20.0625 11.21 19.9687 11.21 19.9687 11.115C19.875 11.02 19.875 11.02 19.875 10.925V0.285H19.7812Z" fill="#FF9F0A"/>
</svg>
