<svg width="17" height="36" viewBox="0 0 17 36" fill="none" xmlns="http://www.w3.org/2000/svg">
<path d="M15.1234 7.10612V31.9775C15.1234 33.5764 13.8798 34.82 12.281 34.82H3.84245C2.24357 34.82 1 33.5764 1 31.9775V7.10612C1 5.50724 2.24357 4.26367 3.84245 4.26367H12.3698C13.8798 4.26367 15.1234 5.50724 15.1234 7.10612Z" stroke="#8E8E93" stroke-width="2" stroke-miterlimit="10" stroke-linecap="round"/>
<path d="M8.106 0C6.50712 0 5.17472 0.888267 4.99707 2.13184H11.3038C10.9484 0.888267 9.70488 0 8.106 0Z" fill="#8E8E93"/>
<path d="M3.84224 33.0435C3.22046 33.0435 2.6875 32.5105 2.6875 31.8887V23.3614C2.6875 22.7396 3.22046 22.2066 3.84224 22.2066H12.3696C12.9914 22.2066 13.5243 22.7396 13.5243 23.3614V31.8887C13.5243 32.5105 12.9914 33.0435 12.3696 33.0435H3.84224Z" fill="#FF9F0A"/>
</svg>
