<svg width="18" height="36" viewBox="0 0 18 36" fill="none" xmlns="http://www.w3.org/2000/svg">
<path d="M16.1121 7.10612V31.9776C16.1121 33.5764 14.8686 34.82 13.2697 34.82H4.74231C3.14343 34.82 1.8999 33.5764 1.8999 31.9776V7.10612C1.8999 5.50724 3.14343 4.26367 4.74231 4.26367H13.2697C14.8686 4.26367 16.1121 5.50724 16.1121 7.10612Z" stroke="#8E8E93" stroke-width="2" stroke-miterlimit="10" stroke-linecap="round"/>
<path d="M9.09477 0C7.49589 0 6.16349 0.888265 5.98584 2.13184H12.2925C11.9372 0.888265 10.6936 0 9.09477 0Z" fill="#8E8E93"/>
<path d="M4.831 33.0435C4.20922 33.0435 3.67627 32.5105 3.67627 31.8887V20.6077C3.67627 19.986 4.20922 19.453 4.831 19.453H13.3583C13.9801 19.453 14.5131 19.986 14.5131 20.6077V31.8887C14.5131 32.5105 13.9801 33.0435 13.3583 33.0435H4.831V33.0435Z" fill="#FF9F0A"/>
</svg>
