<svg width="18" height="36" viewBox="0 0 18 36" fill="none" xmlns="http://www.w3.org/2000/svg">
<path d="M16.1121 7.10612V31.9776C16.1121 33.5764 14.8686 34.82 13.2697 34.82H4.74236C3.14348 34.82 1.8999 33.5764 1.8999 31.9776V7.10612C1.8999 5.50724 3.14348 4.26367 4.74236 4.26367H13.2697C14.8686 4.26367 16.1121 5.50724 16.1121 7.10612Z" stroke="#8E8E93" stroke-width="2" stroke-miterlimit="10" stroke-linecap="round"/>
<path d="M9.09477 0C7.49589 0 6.16349 0.888265 5.98584 2.13184H12.2925C11.9372 0.888265 10.6936 0 9.09477 0Z" fill="#8E8E93"/>
<path d="M4.83102 33.0435C4.20923 33.0435 3.67627 32.5105 3.67627 31.8887V9.77093C3.67627 9.14914 4.20923 8.61618 4.83102 8.61618H13.3584C13.9802 8.61618 14.5131 9.14914 14.5131 9.77093V31.8887C14.5131 32.5105 13.9802 33.0435 13.3584 33.0435H4.83102V33.0435Z" fill="#30D158"/>
</svg>
