<svg width="18" height="36" viewBox="0 0 18 36" fill="none" xmlns="http://www.w3.org/2000/svg">
<path d="M6.96338 25.9373C6.96338 25.4044 7.14102 24.8714 7.58515 24.4273C8.02928 23.9832 8.47342 23.8055 9.00638 23.8055C9.62816 23.8055 10.0723 23.9832 10.5164 24.4273C10.9606 24.8714 11.1382 25.3156 11.1382 25.9373C11.1382 26.4703 10.9606 27.0033 10.5164 27.3586C10.0723 27.8027 9.62816 27.9804 9.00638 27.9804C8.47342 27.9804 7.94045 27.8027 7.58515 27.3586C7.14102 27.0033 6.96338 26.5591 6.96338 25.9373ZM8.65108 20.9631C8.56225 20.9631 8.3846 20.9631 8.29578 20.8742C8.20695 20.7854 8.11811 20.6966 8.11811 20.6077L7.14102 13.5905V10.6592C7.14102 10.4815 7.22985 10.3927 7.31868 10.3039C7.40751 10.215 7.49633 10.1262 7.67398 10.1262H10.4276C10.6053 10.1262 10.6941 10.215 10.7829 10.3039C10.8717 10.3927 10.9606 10.4815 10.9606 10.6592V13.5016L9.98348 20.6077C9.98348 20.6966 9.89464 20.7854 9.80581 20.8742C9.71699 20.9631 9.62816 20.9631 9.45051 20.9631H8.65108Z" stroke="#FF453A" stroke-width="1.7582" stroke-miterlimit="10" stroke-linecap="round"/>
<path d="M16.1122 7.10612V31.9775C16.1122 33.5764 14.8686 34.82 13.2697 34.82H4.74236C3.14348 34.82 1.8999 33.5764 1.8999 31.9775V7.10612C1.8999 5.50724 3.14348 4.26367 4.74236 4.26367H13.2697C14.8686 4.26367 16.1122 5.50724 16.1122 7.10612Z" stroke="#8E8E93" stroke-width="2" stroke-miterlimit="10" stroke-linecap="round"/>
<path d="M9.09477 0C7.49589 0 6.16349 0.888267 5.98584 2.13184H12.2925C11.9372 0.888267 10.6936 0 9.09477 0Z" fill="#8E8E93"/>
</svg>
