<svg width="95" height="27" viewBox="0 0 95 27" fill="none" xmlns="http://www.w3.org/2000/svg">
<path d="M14.75 4.52C16.95 4.62 19.03 5.54 20.59 7.1C22.15 8.66 23.07 10.74 23.16 12.94H24.97C24.87 10.26 23.76 7.72 21.86 5.82C19.96 3.92 17.42 2.81 14.74 2.71V4.52H14.75ZM22.26 12.94H20.45C20.35 11.46 19.72 10.06 18.67 9.01C17.62 7.96 16.22 7.33 14.74 7.23V5.42C16.7 5.52 18.56 6.34 19.94 7.73C21.34 9.12 22.16 10.97 22.26 12.94ZM19.55 12.94H17.74C17.65 12.18 17.31 11.47 16.77 10.93C16.23 10.39 15.52 10.05 14.76 9.96V8.15C16 8.24 17.17 8.78 18.05 9.66C18.92 10.53 19.46 11.7 19.55 12.94ZM14.75 1.81V0C18.15 0.1 21.38 1.5 23.78 3.9C26.18 6.3 27.58 9.54 27.68 12.93H25.87C25.77 10.01 24.56 7.24 22.5 5.17C20.44 3.11 17.67 1.91 14.75 1.81Z" fill="#8C8C91"/>
<path d="M35.3 11.47C34.37 11.45 33.44 11.55 32.54 11.75C31.89 11.89 31.28 12.2 30.77 12.63C30.32 13.05 29.99 13.58 29.84 14.18C29.65 14.92 29.56 15.69 29.57 16.46V17.34C29.55 18.1 29.65 18.86 29.87 19.6C30.04 20.16 30.35 20.68 30.76 21.09C31.17 21.48 31.67 21.76 32.22 21.91C32.87 22.08 33.54 22.17 34.21 22.16H38.49C39.2 22.17 39.9 22.09 40.59 21.9C41.13 21.75 41.62 21.47 42.02 21.07C42.41 20.65 42.7 20.14 42.85 19.59C43.04 18.86 43.13 18.1 43.12 17.34V16.46C43.14 15.67 43.04 14.89 42.82 14.13C42.64 13.53 42.29 12.99 41.81 12.58C41.27 12.15 40.64 11.86 39.96 11.73C39.03 11.54 38.09 11.46 37.14 11.47H35.3ZM27.68 13.73C27.61 16.25 26.82 18.7 25.41 20.79L27.68 26.67H14.35C10.84 26.67 7.48001 25.3 4.98001 22.84C2.48001 20.38 1.05002 17.04 1.00002 13.53C0.950018 10.02 2.28001 6.64 4.70001 4.11C7.12001 1.58 10.45 0.1 13.95 0V5.42C12.42 5.5 10.94 6.01 9.70002 6.91C8.46002 7.81 7.50001 9.05 6.95001 10.48C6.40001 11.91 6.27001 13.47 6.59001 14.97C6.91001 16.47 7.65002 17.84 8.74002 18.93C9.82002 20.01 11.2 20.76 12.7 21.08C14.2 21.4 15.76 21.27 17.19 20.72C18.62 20.17 19.86 19.22 20.76 17.97C21.66 16.73 22.18 15.25 22.25 13.72H27.68V13.73ZM14.35 11.08C13.91 11.08 13.47 11.21 13.1 11.46C12.73 11.71 12.44 12.06 12.27 12.47C12.1 12.88 12.06 13.33 12.14 13.77C12.23 14.21 12.44 14.61 12.76 14.92C13.07 15.23 13.47 15.45 13.91 15.54C14.35 15.63 14.8 15.58 15.21 15.41C15.62 15.24 15.97 14.95 16.22 14.58C16.47 14.21 16.6 13.78 16.6 13.33C16.6 13.03 16.54 12.74 16.43 12.47C16.32 12.2 16.15 11.95 15.94 11.74C15.73 11.53 15.48 11.37 15.21 11.25C14.94 11.14 14.65 11.08 14.35 11.08ZM39.94 16.97C39.95 17.35 39.9 17.73 39.79 18.1C39.7 18.39 39.53 18.65 39.3 18.85C39.03 19.06 38.72 19.21 38.39 19.28C37.93 19.38 37.47 19.43 37 19.42H35.67C35.2 19.43 34.74 19.38 34.28 19.28C33.95 19.21 33.63 19.06 33.37 18.85C33.14 18.65 32.97 18.39 32.88 18.1C32.77 17.73 32.72 17.35 32.73 16.97V16.54C32.72 16.18 32.77 15.83 32.87 15.49C32.96 15.2 33.12 14.94 33.35 14.75C33.63 14.53 33.95 14.39 34.3 14.32C34.79 14.22 35.3 14.17 35.8 14.18H36.87C37.38 14.17 37.88 14.22 38.38 14.32C38.72 14.39 39.05 14.53 39.33 14.75C39.56 14.94 39.73 15.2 39.81 15.49C39.91 15.83 39.96 16.19 39.95 16.54L39.94 16.97ZM48.78 7.21H45.21V22.13H48.78V7.21ZM54.11 18.97H50.95C50.93 19.5 51.03 20.04 51.24 20.53C51.42 20.92 51.7 21.26 52.06 21.51C52.45 21.77 52.88 21.94 53.34 22.01C53.89 22.11 54.44 22.15 55 22.15H60.08C61.48 22.15 62.55 21.88 63.27 21.33C63.99 20.79 64.36 19.98 64.36 18.9V18.34C64.37 17.89 64.3 17.44 64.14 17.02C63.99 16.65 63.74 16.33 63.42 16.1C63.02 15.82 62.57 15.63 62.1 15.54C61.43 15.41 60.76 15.34 60.08 15.34L55.41 15.25C55.06 15.27 54.71 15.21 54.38 15.09C54.3 15.04 54.23 14.96 54.19 14.87C54.15 14.78 54.13 14.68 54.14 14.58C54.13 14.47 54.16 14.36 54.2 14.26C54.25 14.16 54.32 14.07 54.4 14.01C54.71 13.84 55.07 13.77 55.42 13.81H59.14C60.33 13.81 60.92 14.09 60.92 14.65H64.27C64.29 14.11 64.2 13.58 64 13.08C63.84 12.68 63.56 12.34 63.2 12.1C62.8 11.84 62.34 11.67 61.87 11.61C61.25 11.51 60.62 11.46 59.99 11.47H55.18C54.5 11.46 53.83 11.53 53.17 11.69C52.7 11.8 52.25 12.02 51.87 12.32C51.55 12.59 51.31 12.94 51.17 13.33C51.03 13.76 50.96 14.22 50.97 14.67V15.19C50.95 15.65 51.04 16.12 51.22 16.54C51.38 16.89 51.62 17.19 51.93 17.41C52.27 17.65 52.66 17.81 53.07 17.88C53.58 17.98 54.09 18.03 54.61 18.04L59.41 18.13C59.8 18.1 60.19 18.19 60.53 18.38C60.62 18.45 60.69 18.54 60.74 18.64C60.79 18.74 60.81 18.86 60.81 18.97C60.82 19.09 60.79 19.21 60.74 19.32C60.69 19.43 60.61 19.53 60.52 19.6C60.18 19.78 59.8 19.86 59.41 19.83H55.45C55.22 19.84 54.99 19.81 54.76 19.75C54.61 19.71 54.47 19.64 54.35 19.55C54.26 19.48 54.19 19.38 54.16 19.27C54.12 19.17 54.11 19.07 54.11 18.97ZM68.87 11.51H65.43L70.4 22.13C70.29 22.39 70.13 22.62 69.94 22.82C69.75 23 69.54 23.13 69.3 23.22C69.02 23.32 68.72 23.39 68.42 23.41C68.03 23.45 67.64 23.47 67.25 23.46V26.66C68.19 26.68 69.13 26.58 70.04 26.38C70.73 26.22 71.39 25.94 71.99 25.54C72.53 25.16 73 24.68 73.38 24.13C73.81 23.49 74.18 22.82 74.5 22.12L79.51 11.5H76.07L72.48 18.92L68.87 11.51ZM83.81 18.97H80.65C80.63 19.5 80.73 20.04 80.94 20.53C81.12 20.92 81.4 21.26 81.76 21.51C82.15 21.77 82.58 21.94 83.04 22.01C83.59 22.11 84.14 22.15 84.7 22.15H89.77C91.17 22.15 92.24 21.88 92.96 21.33C93.68 20.79 94.05 19.98 94.05 18.9V18.34C94.06 17.89 93.99 17.44 93.84 17.02C93.69 16.65 93.44 16.33 93.12 16.1C92.72 15.82 92.27 15.63 91.8 15.54C91.13 15.41 90.46 15.34 89.78 15.34L85.12 15.25C84.77 15.27 84.42 15.21 84.09 15.09C84.01 15.04 83.94 14.96 83.9 14.87C83.86 14.78 83.84 14.68 83.85 14.58C83.84 14.47 83.87 14.36 83.91 14.26C83.96 14.16 84.03 14.07 84.12 14.01C84.43 13.84 84.79 13.77 85.14 13.81H88.86C90.05 13.81 90.64 14.09 90.64 14.65H93.99C94.01 14.11 93.92 13.58 93.72 13.08C93.56 12.68 93.28 12.34 92.92 12.1C92.52 11.84 92.06 11.67 91.59 11.61C90.97 11.51 90.34 11.46 89.71 11.47H84.9C84.22 11.46 83.55 11.53 82.89 11.69C82.41 11.8 81.97 12.02 81.59 12.32C81.27 12.59 81.03 12.94 80.89 13.33C80.75 13.76 80.68 14.22 80.69 14.67V15.19C80.67 15.65 80.76 16.12 80.94 16.54C81.1 16.89 81.34 17.19 81.65 17.41C81.99 17.65 82.38 17.81 82.79 17.88C83.3 17.98 83.81 18.03 84.33 18.04L89.12 18.13C89.51 18.1 89.9 18.19 90.24 18.38C90.33 18.45 90.4 18.54 90.45 18.64C90.5 18.74 90.52 18.86 90.52 18.97C90.53 19.09 90.5 19.21 90.45 19.32C90.4 19.43 90.32 19.53 90.23 19.6C89.89 19.78 89.51 19.86 89.12 19.83H85.17C84.94 19.84 84.71 19.81 84.48 19.75C84.33 19.71 84.19 19.64 84.07 19.55C83.98 19.48 83.91 19.38 83.88 19.27C83.83 19.17 83.82 19.07 83.81 18.97Z" fill="#8C8C91"/>
<path d="M31.18 25.49C31.27 25.33 31.31 25.16 31.31 24.98C31.32 24.73 31.23 24.49 31.06 24.31C30.97 24.22 30.87 24.16 30.76 24.11C30.65 24.06 30.53 24.04 30.41 24.04C30.29 24.04 30.17 24.06 30.06 24.11C29.95 24.16 29.85 24.22 29.76 24.31C29.6 24.5 29.51 24.73 29.51 24.98C29.51 25.23 29.6 25.46 29.76 25.65C29.84 25.74 29.94 25.81 30.06 25.86C30.17 25.91 30.29 25.93 30.42 25.92C30.52 25.92 30.63 25.91 30.73 25.87L30.5 25.58L30.98 25.21L31.18 25.49ZM31.07 26.33C30.86 26.43 30.63 26.48 30.4 26.47C30.07 26.46 29.74 26.34 29.49 26.13C29.23 25.92 29.06 25.62 28.99 25.29C28.92 24.96 28.97 24.62 29.13 24.32C29.28 24.02 29.53 23.79 29.84 23.65C30.15 23.51 30.49 23.49 30.81 23.57C31.13 23.65 31.42 23.85 31.62 24.12C31.82 24.39 31.92 24.72 31.91 25.05C31.9 25.38 31.77 25.7 31.55 25.96L31.81 26.29L31.33 26.66L31.07 26.33ZM32.31 23.47V25.37C32.31 25.52 32.34 25.67 32.41 25.8C32.47 25.94 32.57 26.05 32.68 26.15C32.95 26.36 33.27 26.47 33.61 26.47C33.95 26.47 34.28 26.36 34.54 26.15C34.66 26.06 34.75 25.94 34.81 25.8C34.87 25.66 34.91 25.52 34.91 25.37V23.47H34.31V25.21C34.32 25.3 34.3 25.4 34.27 25.48C34.24 25.57 34.18 25.64 34.11 25.71C33.96 25.81 33.79 25.87 33.61 25.87C33.43 25.87 33.26 25.81 33.11 25.71C33.04 25.65 32.99 25.57 32.95 25.48C32.92 25.39 32.9 25.3 32.91 25.21V23.47H32.31ZM35.4 26.48L36.6 23.48H37.2L38.4 26.48H37.76L37.58 26.02H36.22L36.04 26.48H35.4ZM36.92 24.27L36.46 25.41H37.36L36.92 24.27ZM38.85 23.47V26.47H41.05V25.91H39.45V23.47H38.85ZM41.55 23.47H42.15V26.47H41.55V23.47ZM42.6 23.47V24.03H43.6V26.47H44.2V24.03H45.2V23.47H42.6ZM45.47 23.47H46.18L46.88 24.45L47.59 23.47H48.28L47.18 24.97V26.47H46.58V24.97L45.47 23.47ZM51.47 26.48C51.13 26.47 50.8 26.35 50.55 26.13C50.29 25.91 50.12 25.61 50.06 25.27C50 24.94 50.06 24.59 50.22 24.3C50.38 24 50.64 23.77 50.96 23.65C51.27 23.52 51.62 23.51 51.95 23.61C52.27 23.71 52.55 23.92 52.74 24.2C52.93 24.48 53.01 24.82 52.98 25.16C52.95 25.5 52.8 25.81 52.56 26.05C52.42 26.19 52.25 26.3 52.07 26.38C51.87 26.45 51.67 26.48 51.47 26.48ZM51.48 25.92C51.6 25.92 51.72 25.9 51.83 25.86C51.94 25.81 52.04 25.74 52.13 25.65C52.29 25.46 52.38 25.23 52.38 24.98C52.38 24.73 52.29 24.5 52.13 24.31C52.04 24.22 51.94 24.16 51.83 24.11C51.72 24.06 51.6 24.04 51.48 24.04C51.36 24.04 51.24 24.06 51.13 24.11C51.02 24.16 50.92 24.22 50.83 24.31C50.67 24.5 50.58 24.73 50.58 24.98C50.58 25.23 50.67 25.46 50.83 25.65C50.91 25.74 51.01 25.81 51.13 25.86C51.23 25.9 51.36 25.92 51.48 25.92ZM53.42 26.48V23.48H55.53V24.04H54.02V24.68H55.14V25.24H54.02V26.48H53.42ZM57.38 23.47V26.47H59.58V25.91H57.98V23.47H57.38ZM60.07 23.47H60.67V26.47H60.07V23.47ZM61.27 26.48V23.47H63.38V24.03H61.87V24.67H62.99V25.23H61.87V26.47L61.27 26.48ZM63.82 26.48V23.48H66.03V24.04H64.42V24.68H65.62V25.24H64.42V25.92H66.02V26.48H63.82Z" fill="#8C8C91"/>
</svg>
