<svg width="27" height="29" viewBox="0 0 27 29" fill="none" xmlns="http://www.w3.org/2000/svg">
<path d="M19 6.90002C20.3807 6.90002 21.5 5.78074 21.5 4.40002C21.5 3.01931 20.3807 1.90002 19 1.90002C17.6193 1.90002 16.5 3.01931 16.5 4.40002C16.5 5.78074 17.6193 6.90002 19 6.90002Z" stroke="#8E8E93" stroke-width="2" stroke-miterlimit="10" stroke-linecap="round"/>
<path d="M10 15L7.6 18.5H3C2.2 18.5 1.5 19.2 1.5 20C1.5 20.8 2.2 21.5 3 21.5H8.3C9.1 21.5 9.8 21.1 10.2 20.5L12.1 17.5" stroke="#8E8E93" stroke-width="2" stroke-miterlimit="10" stroke-linecap="round"/>
<path d="M18.7999 9.00002L15.5999 15.2C15.4999 15.3 15.5999 15.5 15.6999 15.5L18.8999 18.5C19.1999 18.8 19.2999 19.1 19.1999 19.5L17.9999 25.8C17.7999 26.6 16.9999 27.2 16.1999 27C15.3999 26.8 14.7999 26 14.9999 25.2L15.9999 20.1C15.9999 20 15.9999 20 15.8999 19.9L10.9999 16.8C9.99991 16.2 9.69992 14.9 10.2999 13.9L13.2999 8.80002C13.3999 8.70002 13.2999 8.60002 13.1999 8.60002L10.7999 7.70002L7.09991 10.4C6.59991 10.8 5.79991 10.7 5.39991 10.1C4.99991 9.60002 5.09991 8.80002 5.69991 8.40002L9.99991 5.30002C10.2999 5.10002 10.5999 5.00002 10.8999 5.10002L15.4999 6.20002C15.5999 6.20002 15.7999 6.30002 15.8999 6.40002L17.9999 7.70002C18.1999 7.80002 18.3999 8.10002 18.4999 8.30002L20.3999 13.1H23.7999C24.4999 13.1 25.0999 13.7 25.0999 14.4C25.0999 15.1 24.4999 15.7 23.7999 15.7H19.9999C19.2999 15.7 18.6999 15.3 18.3999 14.7L17.2999 12" stroke="#8E8E93" stroke-width="2" stroke-miterlimit="10" stroke-linecap="round"/>
</svg>
