<svg width="42" height="28" viewBox="0 0 42 28" fill="none" xmlns="http://www.w3.org/2000/svg">
<path d="M12.3 25.1L11.6 24.4C9.8 22.6 9.8 19.8 11.6 18L21.7 7.90005C23.5 6.10005 26.3 6.10005 28.1 7.90005L28.8 8.60005C30.6 10.4 30.6 13.2 28.8 15L18.7 25.1C16.9 26.8001 14.1 26.8001 12.3 25.1Z" stroke="#8E8E93" stroke-width="2" stroke-miterlimit="10" stroke-linecap="round"/>
<path d="M1.1001 16.5H6.1001C6.6001 15.5 7.2001 14.6 8.1001 13.8L17.5001 4.40005C19.5001 2.40005 22.1001 1.30005 25.0001 1.30005C27.9001 1.30005 30.5001 2.40005 32.5001 4.40005C34.5001 6.40005 35.6001 9.00005 35.6001 11.9C35.6001 13.6 35.2001 15.2 33.5001 16.6H37.3001H40.0001" stroke="#8E8E93" stroke-width="2" stroke-miterlimit="10" stroke-linecap="round"/>
<path d="M40.0002 18.3001C40.9943 18.3001 41.8002 17.4942 41.8002 16.5001C41.8002 15.506 40.9943 14.7001 40.0002 14.7001C39.0061 14.7001 38.2002 15.506 38.2002 16.5001C38.2002 17.4942 39.0061 18.3001 40.0002 18.3001Z" fill="#8E8E93"/>
</svg>
