<svg width="28" height="28" viewBox="0 0 28 28" fill="none" xmlns="http://www.w3.org/2000/svg">
<path d="M12.1001 6.4L15.5001 3C18.0001 0.5 22.1001 0.5 24.6001 3C25.8001 4.2 26.5001 5.9 26.5001 7.6C26.5001 9.2 25.9001 10.9 24.6001 12.1L21.3001 15.4" stroke="#8E8E93" stroke-width="2" stroke-miterlimit="10" stroke-linecap="round"/>
<path d="M8.90005 9.59998L3.30005 15.2C0.800049 17.7 0.800049 21.8 3.30005 24.3C5.80005 26.8 9.90005 26.8 12.4001 24.3L16.3 20.4" stroke="#8E8E93" stroke-width="2" stroke-miterlimit="10" stroke-linecap="round"/>
<path d="M17.7 16.5L21.2999 17.4L19.3999 19.1L17.7 16.5Z" fill="#8E8E93"/>
<path d="M11 10.9L9.5 6.6L10.5 5.5L11 10.9Z" fill="#8E8E93"/>
<path d="M8.8999 9.59998L8.99991 15.4L15.8999 18L16.2999 20.4" stroke="#8E8E93" stroke-width="2" stroke-miterlimit="10" stroke-linecap="round"/>
<path d="M21.3001 15.4L12.4001 13L13.6001 7.40002L12.1001 6.40002" stroke="#8E8E93" stroke-width="2" stroke-miterlimit="10" stroke-linecap="round"/>
</svg>
