<svg viewBox="0 0 60 60" xmlns="http://www.w3.org/2000/svg"><g fill="none" stroke="#64d2ff" stroke-linecap="round" stroke-miterlimit="10" stroke-width="2"><path d="m30 10v40"/><path d="m25.746 47.608 4.254-4.255 4.254 4.255"/><path d="m25.746 42.435 4.254-4.255 4.254 4.255"/><path d="m34.254 12.392-4.254 4.255-4.254-4.255"/><path d="m34.254 17.565-4.254 4.255-4.254-4.255"/><path d="m12.679 20 34.642 20"/><path d="m43.121 42.488-1.557-5.811 5.812-1.557"/><path d="m38.642 39.902-1.558-5.812 5.812-1.557"/><path d="m16.879 17.512 1.557 5.811-5.812 1.557"/><path d="m21.358 20.098 1.558 5.812-5.812 1.557"/><path d="m12.679 40 34.642-20"/><path d="m47.376 24.88-5.812-1.557 1.557-5.811"/><path d="m42.896 27.467-5.812-1.557 1.558-5.812"/><path d="m12.624 35.12 5.812 1.557-1.557 5.811"/><path d="m17.104 32.533 5.812 1.557-1.558 5.812"/></g></svg>