<svg viewBox="0 0 130 130" xmlns="http://www.w3.org/2000/svg"><g fill="none" stroke="#8e8e93" stroke-linecap="round" stroke-miterlimit="10" stroke-width="2"><path d="m32.181 54.232h65.638a13.116 13.116 0 0 1 13.116 13.116v14.575a4.249 4.249 0 0 1 -4.249 4.249h-83.372a4.249 4.249 0 0 1 -4.249-4.249v-14.575a13.116 13.116 0 0 1 13.116-13.116z"/><circle cx="32.984" cy="65.934" r="5.485"/><circle cx="97.016" cy="65.934" r="5.485"/><circle cx="28.81" cy="78.934" r="1.311"/><circle cx="101.19" cy="78.934" r="1.311"/><path d="m38.469 80.527h53.062"/><path d="m38.469 76.655h53.062"/><path d="m21.722 86.173h13.954a0 0 0 0 1 0 0v5.517a1.984 1.984 0 0 1 -1.984 1.984h-9.986a1.984 1.984 0 0 1 -1.984-1.984v-5.517a0 0 0 0 1 0 0z"/><path d="m94.324 86.173h13.954a0 0 0 0 1 0 0v5.517a1.984 1.984 0 0 1 -1.984 1.984h-9.986a1.984 1.984 0 0 1 -1.984-1.984v-5.517a0 0 0 0 1 0 0z"/><path d="m49 64.617h32a4.6 4.6 0 0 1 4.6 4.6 1.333 1.333 0 0 1 -1.333 1.333h-38.532a1.333 1.333 0 0 1 -1.335-1.337 4.6 4.6 0 0 1 4.6-4.6z"/><path d="m103.815 55.732s-6.372-8.356-8.55-11.824-5.485-7.582-11.776-7.582h-36.978c-6.291 0-9.6 4.114-11.776 7.582s-8.55 11.824-8.55 11.824"/><rect height="7.743" rx="2.782" width="10.526" x="15" y="45.198"/><path d="m21.807 52.942h6.468"/><rect height="7.743" rx="2.782" transform="matrix(-1 0 0 -1 219.474 98.14)" width="10.526" x="104.474" y="45.198"/><path d="m108.193 52.942h-6.468"/></g></svg>