<svg viewBox="0 0 130 130" xmlns="http://www.w3.org/2000/svg"><g fill="none" stroke="#8e8e93" stroke-linecap="round" stroke-width="2"><path d="m82.178 28.458s17.405 9.675 18.349 30.742" stroke-miterlimit="10"/><path d="m71.8 23.443c2.537-2.178 14.725-3.891 23.717-.118 12.043 5.056 19.983 17.975 3.237 25.028a1.158 1.158 0 0 0 -.28.163c-15.824 12.626-24.968-4.689-24.2-16.1a13.741 13.741 0 0 0 -2.474-8.973z" stroke-miterlimit="10"/><g stroke-linejoin="round"><path d="m65.115 115h-.057"/><path d="m26.227 96.568a49.9 49.9 0 0 0 38.773 18.432h.039"/><path d="m108.393 40.148a49.753 49.753 0 0 1 6.607 24.852"/><path d="m65.058 15h.057"/><path d="m89.671 21.5a49.765 49.765 0 0 0 -24.556-6.5"/><path d="m115 65a49.793 49.793 0 0 1 -11.188 31.52"/><path d="m65.058 115h-.019"/><path d="m15 65a49.79 49.79 0 0 0 11.227 31.568"/><path d="m65.115 115a49.9 49.9 0 0 0 38.7-18.479"/><path d="m26.246 33.409a49.787 49.787 0 0 0 -11.246 31.591"/><path d="m65.039 15h-.039a49.9 49.9 0 0 0 -38.754 18.409"/><path d="m65.039 15h.019"/><path d="m43.732 40.149a92.483 92.483 0 0 0 -3.245 24.851"/><path d="m65.115 115c9.107-.042 17.051-10.167 21.278-25.18"/><path d="m65.039 115h.019"/><path d="m65.115 115h-.057"/><path d="m65.039 15c-9.117.014-17.072 10.131-21.307 25.148"/><path d="m43.723 89.819a92.49 92.49 0 0 1 -3.236-24.819"/><path d="m43.723 89.819c4.233 15.034 12.193 25.166 21.316 25.181"/><path d="m65.039 15h.019"/><path d="m89.63 65a92.489 92.489 0 0 1 -3.237 24.819"/><path d="m88.909 52.932a99.936 99.936 0 0 1 .721 12.068"/><path d="m77.246 21.575c-3.577-4.165-7.718-6.553-12.131-6.575"/><path d="m65.115 15h-.057"/><path d="m65.058 87.474a94.939 94.939 0 0 0 -21.335 2.345"/><path d="m103.812 96.52a60.708 60.708 0 0 0 -17.419-6.7"/><path d="m26.227 96.568a60.551 60.551 0 0 1 17.5-6.749"/><path d="m65.058 87.474a94.925 94.925 0 0 1 21.335 2.345"/><path d="m65.058 42.491a100.593 100.593 0 0 0 10.593-.553"/><path d="m65.058 42.491a94.978 94.978 0 0 1 -21.326-2.342"/><path d="m26.246 33.409a60.642 60.642 0 0 0 17.486 6.74"/><path d="m65.058 15v.001"/><path d="m65.058 42.491v22.509"/><path d="m65.058 87.474v27.525"/><path d="m65.058 115v-.001"/><path d="m65.058 42.491v-27.49"/><path d="m65.058 87.474v-22.474"/><path d="m89.63 65h-24.572"/><path d="m65.058 65h-24.571"/><path d="m115 65h-25.37"/><path d="m15 65h25.487"/></g></g></svg>