<svg viewBox="0 0 145 145" xmlns="http://www.w3.org/2000/svg"><g fill="none" stroke="#ffd60a" stroke-miterlimit="10" stroke-width="2"><path d="m111.678 99.329c-.046-15.162 8.7-24 8.7-24 6.736-6.921 13.1-16.458 13.1-27.014a38.71 38.71 0 0 0 -10.9-27.06 36.752 36.752 0 0 0 -26.363-11.255h.44a36.693 36.693 0 0 0 -26.343 11.227 38.651 38.651 0 0 0 -10.9 27.037c0 10.555 6.342 20.116 13.078 27.037a35.882 35.882 0 0 1 8.7 24.028"/><path d="m80.289 111.852h32.408"/><path d="m80.289 123.426h32.408"/><path d="m87.234 135h18.518"/><path d="m69.226 16.614a36.368 36.368 0 0 0 -20.904-6.614h.44a36.691 36.691 0 0 0 -26.343 11.227 38.652 38.652 0 0 0 -10.9 27.037c0 10.555 6.343 20.116 13.079 27.037a35.882 35.882 0 0 1 8.7 24.028"/><path d="m63.785 99.329a37.086 37.086 0 0 1 6.047-20.574"/><path d="m32.396 111.852h32.407"/><path d="m32.396 123.426h32.407"/><path d="m39.34 135h18.519"/></g></svg>