<svg viewBox="0 0 130 130" xmlns="http://www.w3.org/2000/svg"><g fill="none" stroke="#8e8e93" stroke-linecap="round" stroke-linejoin="round" stroke-width="2"><path d="m110.486 36.053h-90.972l-4.514 17.361a7.145 7.145 0 0 0 14.277.172 7.161 7.161 0 0 0 14.3 0 7.144 7.144 0 0 0 14.268 0 7.162 7.162 0 0 0 14.3 0 7.144 7.144 0 0 0 14.268 0 7.161 7.161 0 0 0 14.3 0 7.145 7.145 0 0 0 14.287-.172z"/><path d="m19.514 27.025h90.972v9.028h-90.972z"/><path d="m19.514 65.819h90.972v37.156h-90.972z"/><path d="m96.9 102.975v-13.345a3.191 3.191 0 0 0 -3.191-3.191h-14.728a3.191 3.191 0 0 0 -3.191 3.191v13.345"/><path d="m92.177 94.726v8.238"/><path d="m80.509 102.975v-8.249"/><circle cx="86.343" cy="79.395" r="5.834"/></g></svg>