<svg viewBox="0 0 60 60" xmlns="http://www.w3.org/2000/svg"><path d="m46.566 35.427a7.887 7.887 0 0 0 -3.766-.927 19.229 19.229 0 0 0 -3.286.284c-.415.059-.775.119-1.055.136a17.407 17.407 0 0 1 -1.859.054 14.947 14.947 0 0 1 -3.083-.362 3.749 3.749 0 0 0 -.137-2.208 4.016 4.016 0 0 0 -.2-.44l.989-.787a.772.772 0 0 0 .2-.232 40.5 40.5 0 0 0 2.022-3.89c1.567-3.474 1.756-7.49.488-10.235a8.309 8.309 0 0 0 -7.179-5.138 6.851 6.851 0 0 0 -1.581.16 6.591 6.591 0 0 0 -5.219 6.617c.048 2.744 1.83 4.961 3 6.428.262.33.492.614.655.841a16.333 16.333 0 0 1 2.222 4.409 1.959 1.959 0 0 0 -.237.074 3.717 3.717 0 0 0 -1.854 1.543l-1.166-.454a.951.951 0 0 0 -.29-.062c-.089 0-2.238-.032-4.381.173-3.791.375-7.364 2.21-9.1 4.673-2.348 3.314-2.327 7.456.041 10.066a6.424 6.424 0 0 0 4.717 2.172 6.825 6.825 0 0 0 3.611-.949c2.356-1.41 3.392-4.055 4.075-5.81.153-.389.283-.734.411-.989a16.422 16.422 0 0 1 2.722-4.135 3.767 3.767 0 0 0 2.421 1.01l.188 1.268a1.028 1.028 0 0 0 .095.282 41.961 41.961 0 0 0 2.335 3.701c2.213 3.1 5.586 5.279 8.592 5.561.257.027.525.044.783.049 3.738.071 6.923-1.983 7.923-5.1a6.548 6.548 0 0 0 -3.097-7.783zm-16.757 1.648a3.336 3.336 0 1 1 3.4-3.271 3.328 3.328 0 0 1 -3.4 3.271z" fill="none" stroke="#8e8e93" stroke-miterlimit="10" stroke-width="2"/></svg>