<svg viewBox="0 0 130 130" xmlns="http://www.w3.org/2000/svg"><g fill="none" stroke="#8e8e93" stroke-linecap="round" stroke-miterlimit="10" stroke-width="2"><path d="m27.138 26.591 30.953 3.095v38.693c-1.548 21.667-41.013 21.667-39.466-3.1z"/><path d="m40.46 84.132q-.923 10.533-1.843 21.067c10.041.99 11.876 8.387 11.876 8.387l-32.642-2.646s3.1-6.965 13.156-6.191l1.854-21.066"/><path d="m37.935 45.995-14.738-1.491"/><path d="m52.674 47.485-8.82-.892"/><path d="m89.922 25.439-30.1 7.848 5.987 38.226c4.882 21.167 43.873 15.059 38.512-9.166z"/><path d="m85.664 84.348q2.541 10.263 5.081 20.528c-9.767 2.532-10.435 10.124-10.435 10.124l31.839-7.666s-4.136-6.4-13.955-4.08q-2.547-10.263-5.094-20.526"/><path d="m82.256 46.279 14.331-3.753"/><path d="m67.926 50.032 8.576-2.246"/><path d="m68.151 22.722 3.869-3.869"/><path d="m54.477 21.581-2.832-4.682"/><path d="m61.085 20.384.977-5.384"/></g></svg>