<svg viewBox="0 0 70 70" xmlns="http://www.w3.org/2000/svg"><g fill="none" stroke="#30d158" stroke-miterlimit="10" stroke-width="2"><path d="m6.466 55.5v-4.749h9.006v4.749"/><path d="m10.969 50.751v-19.351a15.9 15.9 0 0 1 15.905-15.9 15.868 15.868 0 0 1 11.98 5.443"/><path d="m33.076 26.72a5.772 5.772 0 0 1 5.772-5.772 5.772 5.772 0 0 1 5.772 5.772z"/><rect height="2.866" rx="1.072" width="11.053" x="19.894" y="46.33"/><path d="m23.844 41.909a1.74 1.74 0 0 1 1.74 1.74v2.681a0 0 0 0 1 0 0h-3.484a0 0 0 0 1 0 0v-2.682a1.74 1.74 0 0 1 1.744-1.739z"/><path d="m27.284 38.961h.039a1.7 1.7 0 0 1 1.7 1.7v5.669a0 0 0 0 1 0 0h-3.439a0 0 0 0 1 0 0v-5.669a1.7 1.7 0 0 1 1.7-1.7z"/><path d="m21.163 55.233v-6.037h8.679v6.037"/><path d="m41.4 32.479h15.775a1.631 1.631 0 0 1 1.631 1.631v9.008a0 0 0 0 1 0 0h-19.037a0 0 0 0 1 0 0v-9.008a1.631 1.631 0 0 1 1.631-1.631z"/><path d="m39.769 43.118h19.036v4.675h-19.036z"/><path d="m61.651 40.278h-.962a1.883 1.883 0 0 0 -1.883 1.883v5.632h-19.037v-5.632a1.883 1.883 0 0 0 -1.883-1.883h-.962a1.883 1.883 0 0 0 -1.883 1.883v7.395a1.345 1.345 0 0 0 1.345 1.344h25.8a1.345 1.345 0 0 0 1.345-1.345v-7.394a1.883 1.883 0 0 0 -1.88-1.883z"/><path d="m39.278 55.016 2.272-4.115"/><path d="m59.438 55.016-2.272-4.115"/></g></svg>