<svg viewBox="0 0 130 130" xmlns="http://www.w3.org/2000/svg"><g fill="none" stroke="#8e8e93" stroke-linecap="round" stroke-linejoin="round" stroke-width="2"><path d="m34.938 84.666h8.762a0 0 0 0 1 0 0v24.055a4.383 4.383 0 0 1 -4.383 4.383 4.383 4.383 0 0 1 -4.383-4.383v-24.055a0 0 0 0 1 .004 0z"/><path d="m45.916 84.666h8.766a0 0 0 0 1 0 0v24.055a4.383 4.383 0 0 1 -4.382 4.379 4.383 4.383 0 0 1 -4.383-4.383v-24.051a0 0 0 0 1 -.001 0z"/><path d="m29.694 59.613-3.954 25.053h38.139l-7.318-30.353"/><path d="m52.504 34.615h-13.208"/><path d="m56.561 54.313 4.789 13.487a3.8 3.8 0 0 0 4.244 2.47 3.8 3.8 0 0 0 2.916-5.013l-8.91-25.065a6.607 6.607 0 0 0 -6.526-5.577h-12.9"/><path d="m27.531 45.407-6.331-12.621a4.32 4.32 0 0 0 -5.725-1.749 4.32 4.32 0 0 0 -1.82 5.958l10.735 19.246a6.607 6.607 0 0 0 5.3 3.372"/><path d="m18.581 38.737 52.597 47.17"/><circle cx="112.858" cy="76.378" r="4.035"/><circle cx="98.936" cy="81.974" r="1.56"/><path d="m113.061 93.978-20.872 21.022s-12.8-.15-16.419-18.657l-6.261-8.349 4.313-4.124s10.297 13.03 39.239 10.108z"/><path d="m75.77 96.343 6.504-6.504"/><path d="m85.51 101.492s2.6 5.25 13.548 6.59"/><path d="m27.531 45.407s3.094-11.107 11.769-10.792"/><circle cx="44.894" cy="24.242" r="9.242"/></g></svg>