<svg viewBox="0 0 190 145" xmlns="http://www.w3.org/2000/svg"><g fill="none" stroke="#30d158" stroke-miterlimit="10" stroke-width="2"><path d="m95.989 10.782c-34.1 0-64.911 14.666-86.845 38.155l10.956 10.95c19.122-20.687 46.062-33.616 75.889-33.616s56.767 12.929 75.894 33.616l10.951-10.95c-21.934-23.489-52.745-38.155-86.845-38.155z"/><path d="m95.989 41.76a87.71 87.71 0 0 0 -64.972 29.05l10.983 10.984a71.649 71.649 0 0 1 107.976 0l10.984-10.984a87.706 87.706 0 0 0 -64.971-29.05z"/><path d="m95.989 72.739a56.956 56.956 0 0 0 -43.03 20.013l10.977 10.977a40.89 40.89 0 0 1 64.106 0l10.977-10.977a56.956 56.956 0 0 0 -43.03-20.013z"/><path d="m95.989 103.717c-8.436 0-15.989 4.293-21.04 11.024l21.04 21.041 21.04-21.041c-5.051-6.731-12.604-11.024-21.04-11.024z"/></g></svg>