<svg width="27" height="30" viewBox="0 0 27 30" fill="none" xmlns="http://www.w3.org/2000/svg">
<path d="M19 8C20.3807 8 21.5 6.88071 21.5 5.5C21.5 4.11929 20.3807 3 19 3C17.6193 3 16.5 4.11929 16.5 5.5C16.5 6.88071 17.6193 8 19 8Z" stroke="#8E8E93" stroke-width="2" stroke-miterlimit="10" stroke-linecap="round"/>
<path d="M10 16.1L7.6 19.6H3C2.2 19.6 1.5 20.3 1.5 21.1C1.5 21.9 2.2 22.6 3 22.6H8.3C9.1 22.6 9.8 22.2 10.2 21.6L12.1 18.6" stroke="#8E8E93" stroke-width="2" stroke-miterlimit="10" stroke-linecap="round"/>
<path d="M20.9 16.7H23.8C24.5 16.7 25.1 16.1 25.1 15.4C25.1 14.7 24.5 14.1 23.8 14.1H20.4L18.8 10.1" stroke="#8E8E93" stroke-width="2" stroke-miterlimit="10" stroke-linecap="round"/>
<path d="M11.7 12.7L10.3 15.1C10.1 15.5 10 15.8999 10 16.2999C10 16.9999 10.4 17.7 11 18.1L15.9 21.2C16 21.2 16 21.3 16 21.4L15 26.5C15 26.6 15 26.7 15 26.8C15 27.5 15.5 28.2 16.3 28.3C17.1 28.5 18 27.9 18.1 27.1L19.3 20.8C19.4 20.4 19.2 20.1 19 19.8L15.8 16.7999" stroke="#8E8E93" stroke-width="2" stroke-miterlimit="10" stroke-linecap="round"/>
<path d="M7.29996 8.19995L5.69995 9.49995C5.39995 9.69995 5.19995 10.1 5.19995 10.5C5.19995 10.7 5.29996 11 5.39996 11.2C5.79996 11.7 6.59995 11.9 7.09995 11.5L9.09995 10.1" stroke="#8E8E93" stroke-width="2" stroke-miterlimit="10" stroke-linecap="round"/>
<path d="M11 6.40002L15.5 7.30002C15.6 7.30002 15.8 7.40002 15.9 7.50002L18 8.80002C18.2 8.90002 18.4 9.20002 18.5 9.40002L18.8 10.1L17.6 12.5" stroke="#8E8E93" stroke-width="2" stroke-miterlimit="10" stroke-linecap="round"/>
<path d="M1 1L24.9 24.9" stroke="#8E8E93" stroke-width="2" stroke-miterlimit="10" stroke-linecap="round"/>
</svg>
