<svg fill="none" height="42" viewBox="0 0 62 42" width="62" xmlns="http://www.w3.org/2000/svg"><g stroke="#ff453a" stroke-miterlimit="10"><path d="m41.1378 35.3448c7.9224 0 14.3448-6.4224 14.3448-14.3448s-6.4224-14.34483-14.3448-14.34483-14.3448 6.42243-14.3448 14.34483 6.4224 14.3448 14.3448 14.3448z"/><path d="m40.931 28.931c2.8566 0 5.1724-2.3157 5.1724-5.1724 0-2.8566-2.3158-5.1724-5.1724-5.1724-2.8567 0-5.1725 2.3158-5.1725 5.1724 0 2.8567 2.3158 5.1724 5.1725 5.1724z"/><path d="m4.72414 26.2414h16.41376v-10.4828h-16.41376c-2.06897 0-3.72414 1.6552-3.72414 3.7242v3.0344c0 2.069 1.65517 3.7242 3.72414 3.7242z"/><path d="m56.4484 41h-30.5517c-2.6207 0-4.6897-2.1379-4.6897-4.6897v-30.62065c0-2.62068 2.138-4.68965 4.6897-4.68965h30.5517c2.6207 0 4.6897 2.13793 4.6897 4.68965v30.55175c0 2.6207-2.069 4.7586-4.6897 4.7586z"/><path d="m44.5861 27.4138-4.8276-4.8276"/></g></svg>