<svg enable-background="new 0 0 62 42" viewBox="0 0 62 42" xmlns="http://www.w3.org/2000/svg"><g fill="none" stroke="#30d158" stroke-miterlimit="10"><path d="m41.104 35.335c7.936 0 14.37-6.433 14.37-14.37 0-7.936-6.434-14.37-14.37-14.37s-14.37 6.433-14.37 14.37 6.433 14.37 14.37 14.37z"/><path d="m40.896 28.979c2.861 0 5.181-2.32 5.181-5.181s-2.32-5.181-5.181-5.181c-2.862 0-5.181 2.32-5.181 5.181s2.32 5.181 5.181 5.181z"/><path d="m56.44 41h-30.604c-2.625 0-4.698-2.142-4.698-4.698v-30.604c0-2.625 2.142-4.698 4.698-4.698h30.604c2.625 0 4.698 2.142 4.698 4.698v30.604c0 2.625-2.072 4.698-4.698 4.698z"/><path d="m40.896 28.91v-6.839"/></g></svg>